<svg width="43" height="48" viewBox="0 0 43 48" fill="none" xmlns="http://www.w3.org/2000/svg">
<path d="M23.4782 31.7363C22.2831 30.3723 20.1604 30.3723 18.9653 31.7363L6.97238 45.4246C5.77731 46.7886 3.65461 46.7886 2.45951 45.4246L1.73218 44.5945C0.740745 43.463 0.740738 41.7721 1.73216 40.6405L18.9653 20.9714C20.1604 19.6074 22.2831 19.6074 23.4782 20.9714L40.7116 40.6405C41.703 41.7721 41.703 43.463 40.7116 44.5945L39.9842 45.4246C38.7892 46.7886 36.6665 46.7886 35.4714 45.4246L23.4782 31.7363Z" fill="#FAFAFA"/>
<path d="M23.4782 13.3403C22.2831 11.9763 20.1604 11.9763 18.9653 13.3404L6.97238 27.0286C5.77731 28.3926 3.65461 28.3926 2.45951 27.0286L1.73218 26.1985C0.740745 25.067 0.740738 23.3761 1.73216 22.2445L18.9653 2.57538C20.1604 1.21137 22.2831 1.21136 23.4782 2.57537L40.7116 22.2445C41.703 23.3761 41.703 25.067 40.7116 26.1985L39.9842 27.0287C38.7892 28.3927 36.6665 28.3927 35.4714 27.0287L23.4782 13.3403Z" fill="#FAFAFA"/>
</svg>
